M48
; DRILL file {KiCad (5.1.8)-1} date 03/08/21 22:06:02
; FORMAT={-:-/ absolute / metric / decimal}
; #@! TF.CreationDate,2021-03-08T22:06:02+01:00
; #@! TF.GenerationSoftware,Kicad,Pcbnew,(5.1.8)-1
; #@! TF.FileFunction,Plated,1,2,PTH
FMAT,2
METRIC
T1C0.400
T2C0.800
T3C1.000
T4C1.016
T5C1.040
%
G90
G05
T1
X38.608Y-83.82
X41.148Y-57.404
X41.656Y-95.504
X42.164Y-67.564
X42.418Y-64.516
X43.18Y-87.63
X44.45Y-116.332
X45.212Y-111.252
X45.466Y-64.77
X46.228Y-108.712
X49.784Y-75.946
X51.816Y-34.544
X53.848Y-103.886
X55.372Y-29.718
X56.134Y-115.316
X56.642Y-57.404
X59.436Y-114.3
X59.944Y-82.804
X59.944Y-109.22
X59.944Y-116.84
X60.452Y-119.888
X60.815Y-56.497
X60.96Y-112.522
X62.484Y-100.076
X66.548Y-115.062
X68.326Y-28.702
X69.85Y-117.094
X70.612Y-94.996
X72.644Y-68.58
X73.406Y-89.408
X74.422Y-70.866
X74.422Y-117.348
X75.184Y-59.944
X75.184Y-62.738
X75.438Y-89.154
X76.2Y-67.31
X76.454Y-65.532
X77.978Y-114.3
X78.232Y-95.758
X78.994Y-117.348
X79.502Y-72.644
X83.058Y-112.268
X86.106Y-35.306
X89.408Y-104.648
X89.408Y-112.268
X97.282Y-64.77
X98.044Y-62.484
X100.838Y-109.982
X101.6Y-120.142
X103.632Y-116.84
X104.14Y-36.83
X114.808Y-97.282
X115.57Y-99.568
X116.845Y-101.097
X117.602Y-67.31
T2
X97.094Y-27.252
X97.094Y-37.412
X42.078Y-36.957
X42.078Y-39.497
X42.078Y-42.037
X42.078Y-44.577
X49.698Y-36.957
X49.698Y-39.497
X49.698Y-42.037
X49.698Y-44.577
X101.691Y-43.03
X101.691Y-53.19
X113.532Y-31.598
X116.032Y-31.598
X75.844Y-31.158
X78.344Y-31.158
X70.775Y-42.194
X70.775Y-52.354
X98.857Y-85.247
X98.857Y-87.787
X98.857Y-90.327
X98.857Y-92.867
X106.477Y-85.247
X106.477Y-87.787
X106.477Y-90.327
X106.477Y-92.867
X90.673Y-77.645
X90.673Y-87.805
X93.21Y-43.058
X93.21Y-53.218
X104.901Y-79.111
X107.401Y-79.111
X37.351Y-37.369
X37.351Y-44.869
X76.772Y-37.201
X76.772Y-39.741
X76.772Y-42.281
X76.772Y-44.821
X84.391Y-37.201
X84.391Y-39.741
X84.391Y-42.281
X84.391Y-44.821
X89.075Y-32.141
X89.075Y-42.301
X40.472Y-48.384
X50.632Y-48.384
X107.322Y-37.888
X107.322Y-40.428
X107.322Y-42.968
X107.322Y-45.508
X114.942Y-37.888
X114.942Y-40.428
X114.942Y-42.968
X114.942Y-45.508
X97.155Y-41.255
X97.155Y-48.755
X97.5Y-79.111
X100.0Y-79.111
X56.507Y-38.613
X56.507Y-48.773
X82.801Y-31.184
X85.301Y-31.184
X41.046Y-30.792
X43.546Y-30.792
X86.782Y-77.645
X86.782Y-87.805
X112.74Y-80.15
X112.74Y-90.31
X61.059Y-42.56
X61.059Y-52.72
X34.105Y-27.155
X34.105Y-37.315
X94.369Y-87.831
X94.369Y-95.331
X94.115Y-98.43
X104.275Y-98.43
X66.248Y-26.792
X66.248Y-36.952
X61.026Y-29.479
X61.026Y-39.639
X66.281Y-39.658
X66.281Y-47.158
X70.797Y-29.442
X70.797Y-36.942
X121.412Y-33.782
X121.412Y-43.942
X28.809Y-52.342
X28.809Y-54.882
X28.809Y-57.422
X28.809Y-59.962
X28.809Y-62.502
X28.809Y-65.042
X28.809Y-67.582
X28.809Y-70.122
X51.669Y-52.342
X51.669Y-54.882
X51.669Y-57.422
X51.669Y-59.962
X51.669Y-62.502
X51.669Y-65.042
X51.669Y-67.582
X51.669Y-70.122
X93.213Y-30.292
X93.213Y-40.452
X63.914Y-104.691
X63.914Y-107.231
X63.914Y-109.771
X63.914Y-112.311
X63.914Y-114.851
X63.914Y-117.391
X63.914Y-119.931
X63.914Y-122.471
X86.774Y-104.691
X86.774Y-107.231
X86.774Y-109.771
X86.774Y-112.311
X86.774Y-114.851
X86.774Y-117.391
X86.774Y-119.931
X86.774Y-122.471
X106.329Y-31.598
X108.829Y-31.598
X47.998Y-30.792
X50.498Y-30.792
X101.554Y-29.833
X101.554Y-37.333
X83.193Y-52.342
X83.193Y-54.882
X83.193Y-57.422
X83.193Y-59.962
X83.193Y-62.502
X83.193Y-65.042
X83.193Y-67.582
X83.193Y-70.122
X106.053Y-52.342
X106.053Y-54.882
X106.053Y-57.422
X106.053Y-59.962
X106.053Y-62.502
X106.053Y-65.042
X106.053Y-67.582
X106.053Y-70.122
X28.209Y-27.16
X28.209Y-37.32
X91.953Y-104.691
X91.953Y-107.231
X91.953Y-109.771
X91.953Y-112.311
X91.953Y-114.851
X91.953Y-117.391
X91.953Y-119.931
X91.953Y-122.471
X114.813Y-104.691
X114.813Y-107.231
X114.813Y-109.771
X114.813Y-112.311
X114.813Y-114.851
X114.813Y-117.391
X114.813Y-119.931
X114.813Y-122.471
T3
X64.92Y-77.47
X67.46Y-77.47
X70.0Y-77.47
X71.12Y-54.864
X73.66Y-54.864
X76.2Y-54.864
X78.74Y-54.864
X120.0Y-50.0
X120.0Y-52.54
X120.0Y-55.08
T4
X119.692Y-69.055
X119.692Y-71.595
X119.692Y-74.135
X119.692Y-76.675
X119.692Y-79.215
X119.692Y-81.755
X119.692Y-84.295
X119.692Y-86.835
X119.692Y-89.375
X119.692Y-91.915
X119.692Y-94.455
X119.692Y-96.995
X119.692Y-99.535
X119.692Y-102.075
X119.692Y-104.615
X119.692Y-107.155
X119.692Y-109.695
X119.692Y-112.235
X119.692Y-114.775
X119.692Y-117.315
X122.232Y-69.055
X122.232Y-71.595
X122.232Y-74.135
X122.232Y-76.675
X122.232Y-79.215
X122.232Y-81.755
X122.232Y-84.295
X122.232Y-86.835
X122.232Y-89.375
X122.232Y-91.915
X122.232Y-94.455
X122.232Y-96.995
X122.232Y-99.535
X122.232Y-102.075
X122.232Y-104.615
X122.232Y-107.155
X122.232Y-109.695
X122.232Y-112.235
X122.232Y-114.775
X122.232Y-117.315
T5
X32.278Y-75.752
X32.278Y-78.292
X32.278Y-80.832
X32.278Y-83.372
X32.278Y-85.912
X32.278Y-88.452
X32.278Y-90.992
X32.278Y-93.532
X32.278Y-96.072
X32.278Y-98.612
X32.278Y-101.152
X32.278Y-103.692
X32.278Y-106.232
X32.278Y-108.772
X32.278Y-111.312
X32.278Y-113.852
X32.278Y-116.392
X32.278Y-118.932
X32.278Y-121.472
X57.678Y-75.752
X57.678Y-78.292
X57.678Y-80.832
X57.678Y-83.372
X57.678Y-85.912
X57.678Y-88.452
X57.678Y-90.992
X57.678Y-93.532
X57.678Y-96.072
X57.678Y-98.612
X57.678Y-101.152
X57.678Y-103.692
X57.678Y-106.232
X57.678Y-108.772
X57.678Y-111.312
X57.678Y-113.852
X57.678Y-116.392
X57.678Y-118.932
X57.678Y-121.472
T0
M30
