M48
; DRILL file {KiCad (5.1.8)-1} date 04/19/21 22:21:22
; FORMAT={-:-/ absolute / metric / decimal}
; #@! TF.CreationDate,2021-04-19T22:21:22+02:00
; #@! TF.GenerationSoftware,Kicad,Pcbnew,(5.1.8)-1
; #@! TF.FileFunction,Plated,1,2,PTH
FMAT,2
METRIC
T1C0.400
T2C0.800
T3C1.000
T4C1.016
T5C1.040
%
G90
G05
T1
X32.004Y-63.5
X36.83Y-69.088
X38.1Y-71.628
X40.894Y-68.072
X41.148Y-57.404
X42.164Y-71.374
X44.196Y-64.96
X45.72Y-60.96
X47.053Y-62.293
X49.784Y-88.138
X51.816Y-34.544
X53.975Y-71.183
X54.165Y-83.376
X55.372Y-29.718
X56.134Y-71.374
X57.34Y-57.277
X59.944Y-59.944
X60.515Y-70.612
X60.815Y-56.497
X66.294Y-105.156
X66.548Y-50.8
X67.437Y-60.96
X68.326Y-28.702
X70.04Y-66.294
X70.104Y-75.946
X72.644Y-68.58
X74.422Y-70.866
X75.184Y-62.738
X76.2Y-67.31
X76.454Y-65.532
X79.502Y-72.644
X84.709Y-86.106
X86.106Y-35.306
X86.677Y-95.313
X88.075Y-75.565
X89.662Y-72.644
X90.673Y-44.709
X92.71Y-72.898
X96.52Y-84.938
X98.108Y-63.754
X98.298Y-67.056
X99.009Y-59.944
X99.568Y-87.947
X101.981Y-84.01
X102.298Y-92.011
X104.14Y-32.067
X104.14Y-36.83
X104.521Y-84.138
X104.75Y-103.378
X107.188Y-84.328
X108.458Y-100.127
X109.982Y-77.851
X110.109Y-79.629
X110.185Y-84.226
X110.236Y-87.947
X111.049Y-100.076
X112.268Y-79.311
X114.859Y-85.242
T2
X37.351Y-37.369
X37.351Y-44.869
X98.298Y-74.739
X98.298Y-97.599
X100.838Y-74.739
X100.838Y-97.599
X103.378Y-74.739
X103.378Y-97.599
X105.918Y-74.739
X105.918Y-97.599
X108.458Y-74.739
X108.458Y-97.599
X110.998Y-74.739
X110.998Y-97.599
X113.538Y-74.739
X113.538Y-97.599
X116.078Y-74.739
X116.078Y-97.599
X76.772Y-37.201
X76.772Y-39.741
X76.772Y-42.281
X76.772Y-44.821
X84.391Y-37.201
X84.391Y-39.741
X84.391Y-42.281
X84.391Y-44.821
X61.026Y-29.479
X61.026Y-39.639
X56.507Y-38.613
X56.507Y-48.773
X101.691Y-43.03
X101.691Y-53.19
X97.155Y-41.255
X97.155Y-48.755
X44.704Y-37.084
X44.704Y-39.624
X44.704Y-42.164
X44.704Y-44.704
X52.324Y-37.084
X52.324Y-39.624
X52.324Y-42.164
X52.324Y-44.704
X70.775Y-42.194
X70.775Y-52.354
X93.213Y-30.292
X93.213Y-40.452
X34.105Y-27.155
X34.105Y-37.315
X28.809Y-49.53
X28.809Y-52.07
X28.809Y-54.61
X28.809Y-57.15
X28.809Y-59.69
X28.809Y-62.23
X28.809Y-64.77
X28.809Y-67.31
X51.669Y-49.53
X51.669Y-52.07
X51.669Y-54.61
X51.669Y-57.15
X51.669Y-59.69
X51.669Y-62.23
X51.669Y-64.77
X51.669Y-67.31
X70.797Y-29.442
X70.797Y-36.942
X101.554Y-29.833
X101.554Y-37.333
X82.801Y-31.184
X85.301Y-31.184
X41.148Y-36.068
X41.148Y-46.228
X38.903Y-119.263
X41.403Y-119.263
X106.329Y-31.598
X108.829Y-31.598
X41.046Y-30.792
X43.546Y-30.792
X51.054Y-103.378
X51.054Y-113.538
X33.564Y-108.064
X33.564Y-118.224
X46.304Y-119.263
X48.804Y-119.263
X75.844Y-31.158
X78.344Y-31.158
X66.281Y-39.658
X66.281Y-47.158
X79.502Y-104.902
X79.502Y-107.442
X79.502Y-109.982
X79.502Y-112.522
X79.502Y-115.062
X79.502Y-117.602
X79.502Y-120.142
X79.502Y-122.682
X102.362Y-104.902
X102.362Y-107.442
X102.362Y-109.982
X102.362Y-112.522
X102.362Y-115.062
X102.362Y-117.602
X102.362Y-120.142
X102.362Y-122.682
X113.532Y-31.598
X116.032Y-31.598
X93.21Y-43.058
X93.21Y-53.218
X28.209Y-27.16
X28.209Y-37.32
X54.864Y-103.378
X54.864Y-110.878
X39.827Y-105.507
X39.827Y-108.047
X39.827Y-110.587
X39.827Y-113.127
X47.447Y-105.507
X47.447Y-108.047
X47.447Y-110.587
X47.447Y-113.127
X121.412Y-33.782
X121.412Y-43.942
X89.075Y-32.141
X89.075Y-42.301
X97.094Y-27.252
X97.094Y-37.412
X107.322Y-37.888
X107.322Y-40.428
X107.322Y-42.968
X107.322Y-45.508
X114.942Y-37.888
X114.942Y-40.428
X114.942Y-42.968
X114.942Y-45.508
X66.248Y-26.792
X66.248Y-36.952
X58.679Y-107.775
X58.679Y-117.935
X47.998Y-30.792
X50.498Y-30.792
X83.439Y-50.546
X83.439Y-53.086
X83.439Y-55.626
X83.439Y-58.166
X83.439Y-60.706
X83.439Y-63.246
X83.439Y-65.786
X83.439Y-68.326
X106.299Y-50.546
X106.299Y-53.086
X106.299Y-55.626
X106.299Y-58.166
X106.299Y-60.706
X106.299Y-63.246
X106.299Y-65.786
X106.299Y-68.326
X62.57Y-107.775
X62.57Y-117.935
X61.059Y-42.56
X61.059Y-52.72
T3
X120.0Y-50.0
X120.0Y-52.54
X120.0Y-55.08
X55.268Y-68.58
X57.808Y-68.58
X60.348Y-68.58
X71.12Y-54.864
X73.66Y-54.864
X76.2Y-54.864
X78.74Y-54.864
T4
X119.692Y-69.055
X119.692Y-71.595
X119.692Y-74.135
X119.692Y-76.675
X119.692Y-79.215
X119.692Y-81.755
X119.692Y-84.295
X119.692Y-86.835
X119.692Y-89.375
X119.692Y-91.915
X119.692Y-94.455
X119.692Y-96.995
X119.692Y-99.535
X119.692Y-102.075
X119.692Y-104.615
X119.692Y-107.155
X119.692Y-109.695
X119.692Y-112.235
X119.692Y-114.775
X119.692Y-117.315
X122.232Y-69.055
X122.232Y-71.595
X122.232Y-74.135
X122.232Y-76.675
X122.232Y-79.215
X122.232Y-81.755
X122.232Y-84.295
X122.232Y-86.835
X122.232Y-89.375
X122.232Y-91.915
X122.232Y-94.455
X122.232Y-96.995
X122.232Y-99.535
X122.232Y-102.075
X122.232Y-104.615
X122.232Y-107.155
X122.232Y-109.695
X122.232Y-112.235
X122.232Y-114.775
X122.232Y-117.315
T5
X27.992Y-74.168
X27.992Y-99.568
X30.532Y-74.168
X30.532Y-99.568
X33.072Y-74.168
X33.072Y-99.568
X35.612Y-74.168
X35.612Y-99.568
X38.152Y-74.168
X38.152Y-99.568
X40.692Y-74.168
X40.692Y-99.568
X43.232Y-74.168
X43.232Y-99.568
X45.772Y-74.168
X45.772Y-99.568
X48.312Y-74.168
X48.312Y-99.568
X50.852Y-74.168
X50.852Y-99.568
X53.392Y-74.168
X53.392Y-99.568
X55.932Y-74.168
X55.932Y-99.568
X58.472Y-74.168
X58.472Y-99.568
X61.012Y-74.168
X61.012Y-99.568
X63.552Y-74.168
X63.552Y-99.568
X66.092Y-74.168
X66.092Y-99.568
X68.632Y-74.168
X68.632Y-99.568
X71.172Y-74.168
X71.172Y-99.568
X73.712Y-74.168
X73.712Y-99.568
T0
M30
